Coordinates
version=1
nRows=29
nColumns=24
inDegrees=yes

Units are S.I. units (second, meters, Newtons, ...)
Angles are in degrees.

endheader
time	pelvis_tilt	pelvis_list	pelvis_rotation	pelvis_tx	pelvis_ty	pelvis_tz	hip_flexion_r	hip_adduction_r	hip_rotation_r	knee_angle_r	ankle_angle_r	subtalar_angle_r	mtp_angle_r	hip_flexion_l	hip_adduction_l	hip_rotation_l	knee_angle_l	ankle_angle_l	subtalar_angle_l	mtp_angle_l	lumbar_extension	lumbar_bending	lumbar_rotation
      0.56700000	      2.65089728	      0.84699447	      8.60045578	     -0.88642666	      1.02504593	      0.30454169	     18.94409226	     -1.48263675	     -9.71822875	      3.37320975	      3.80595864	     -1.62064431	      6.09387357	    -16.71023672	      2.94131756	     12.47082265	     -9.61933700	     11.22011751	    -11.98897504	     -6.68453104	     -7.09784899	     -2.54983526	     -4.69389408
      0.57116667	      2.70942103	      0.73518999	      8.72259213	     -0.88031678	      1.02468823	      0.30471736	     18.93780625	     -1.32989758	     -9.52101824	      2.71970544	      3.93075025	     -1.81620250	      6.13803615	    -16.74747417	      2.77733885	     12.43019540	    -10.36337439	     11.34334252	    -11.79603823	     -6.69322328	     -7.09143416	     -2.39699448	     -4.77517951
      0.57533333	      2.78107133	      0.61223950	      8.85411505	     -0.87417105	      1.02436319	      0.30490545	     18.88670299	     -1.15411578	     -9.25194945	      2.11156686	      3.86304915	     -2.28885013	      6.19283798	    -16.77694501	      2.59292321	     12.33713700	    -11.15035627	     11.46250515	    -11.55671159	     -6.67876216	     -7.08184322	     -2.23177847	     -4.91057591
      0.57950000	      2.85428772	      0.49574164	      8.98289201	     -0.86799043	      1.02406398	      0.30512343	     18.82506286	     -0.97824935	     -8.97665875	      1.49938253	      3.74450622	     -2.79818212	      6.25525902	    -16.80341875	      2.41424080	     12.26732056	    -11.94552319	     11.53430900	    -11.35670599	     -6.64001746	     -7.06597416	     -2.07763337	     -5.02982936
      0.58366667	      2.95502493	      0.36712042	      9.11617067	     -0.86177622	      1.02382317	      0.30534721	     18.71823578	     -0.78024805	     -8.71182127	      0.91070509	      3.52558899	     -3.35814615	      6.32675868	    -16.84027274	      2.21508600	     12.17138943	    -12.76964217	     11.57491701	    -11.13560230	     -6.57356002	     -7.07862419	     -1.90828779	     -5.15393300
      0.58783333	      3.05623660	      0.23926514	      9.24351973	     -0.85550034	      1.02359283	      0.30561269	     18.59569610	     -0.57347764	     -8.43856656	      0.34555887	      3.22336757	     -3.96420799	      6.41047734	    -16.86593320	      2.01259662	     12.04924218	    -13.61492378	     11.58456744	    -10.89559231	     -6.47780977	     -7.08407976	     -1.74638664	     -5.27952992
      0.59200000	      3.16086074	      0.13193205	      9.36952179	     -0.84922224	      1.02338963	      0.30591810	     18.46169304	     -0.38069851	     -8.16033009	     -0.20683224	      2.83205994	     -4.61575892	      6.52780906	    -16.88799805	      1.82621199	     11.91937109	    -14.47420530	     11.55300204	    -10.64564198	     -6.32164035	     -7.10252545	     -1.63076778	     -5.39973037
      0.59616667	      3.28954591	      0.00634489	      9.50120691	     -0.84289556	      1.02325272	      0.30623365	     18.28118807	     -0.15987126	     -7.89212491	     -0.71463531	      2.37098534	     -5.28209106	      6.65929486	    -16.91855191	      1.61086093	     11.77918950	    -15.35786599	     11.48418431	    -10.39058282	     -6.12682447	     -7.13717799	     -1.46960449	     -5.52914549
      0.60033333	      3.39234767	     -0.12326729	      9.63442885	     -0.83653311	      1.02309184	      0.30657614	     18.11885060	      0.06508031	     -7.62526176	     -1.19849197	      1.82970442	     -5.95908182	      6.79853182	    -16.90711019	      1.38992383	     11.62959032	    -16.26221468	     11.38092208	    -10.12256041	     -5.90233625	     -7.12842997	     -1.31078377	     -5.65243755
      0.60450000	      3.51082110	     -0.24616042	      9.75554509	     -0.83013495	      1.02297758	      0.30697188	     17.92639959	      0.29604270	     -7.36145984	     -1.64528418	      1.20979847	     -6.66447653	      6.96362041	    -16.90624581	      1.16927038	     11.45373915	    -17.17146545	     11.21431228	     -9.84947454	     -5.61695230	     -7.13713819	     -1.16366482	     -5.77275394
      0.60866667	      3.64700476	     -0.38118983	      9.87839004	     -0.82369118	      1.02291989	      0.30738049	     17.70110216	      0.54535959	     -7.11470215	     -2.05617763	      0.50183250	     -7.35668277	      7.12892973	    -16.91146804	      0.92464079	     11.25211317	    -18.08767439	     11.01421465	     -9.54678044	     -5.30897360	     -7.15861027	     -0.99882936	     -5.89027938
      0.61283333	      3.78821213	     -0.51007765	      9.99198402	     -0.81722603	      1.02287832	      0.30784428	     17.46691795	      0.79404531	     -6.89597714	     -2.44730485	     -0.26656919	     -8.01713130	      8.98869585	    -16.90935424	      0.67616136	     11.01145922	    -19.01625153	     10.63683808	     -9.26105716	     -1.84105666	     -7.17100231	     -0.85804426	     -5.78169896
      0.61700000	      3.87002495	     -0.63795379	     10.11846711	     -0.81074815	      1.02280263	      0.30831349	     17.29518556	      1.02823698	     -6.68733450	     -2.83943785	     -1.04339732	     -8.63245327	      8.99558386	    -16.81707695	      0.43513290	     10.79202001	    -19.99245013	     10.34200884	     -8.96515423	     -1.74311541	     -7.12616442	     -0.71649038	     -6.12338535
      0.62116667	      3.99472153	     -0.76847197	     10.22485621	     -0.80424877	      1.02280858	      0.30885234	     17.06806915	      1.28377422	     -6.46156670	     -3.20057652	     -1.86352088	     -9.27557114	      9.02683249	    -16.76079086	      0.17328953	     10.50035266	    -20.96796456	      9.99123694	     -8.60316562	     -1.57746067	     -7.12113391	     -0.57433431	     -6.20568514
      0.62533333	      4.11281520	     -0.90512044	     10.33080909	     -0.79773719	      1.02282760	      0.30941574	     16.84620881	      1.54533315	     -6.24755600	     -3.55326051	     -2.69758602	     -9.90350467	      9.08242751	    -16.67350527	     -0.10038209	     10.20067655	    -21.97864898	      9.58629574	     -8.22562143	     -1.33711860	     -7.11020264	     -0.43638307	     -6.30576722
      0.62950000	      4.21016203	     -1.04093545	     10.42886073	     -0.79121911	      1.02285263	      0.31002236	     16.65236400	      1.80419101	     -6.04545609	     -3.91582750	     -3.52286941	    -10.49917909	      9.16100496	    -16.53808791	     -0.37896019	      9.85695256	    -23.01883591	      9.12895115	     -7.82241079	     -1.01287057	     -7.06983101	     -0.30929770	     -6.39509297
      0.63366667	      4.37156124	     -1.17371149	     10.52345038	     -0.78469465	      1.02300560	      0.31064547	     16.38122609	      2.07253373	     -5.86056485	     -4.25789910	     -4.35807986	    -11.09848722	     10.16770853	    -16.47825462	     -0.66806948	      9.55088450	    -24.01102287	      8.40017292	     -7.60620213	      2.74176059	     -7.10088346	     -0.16508904	     -6.34062600
      0.63783333	      4.43938302	     -1.32611699	     10.60730506	     -0.77817364	      1.02303262	      0.31132034	     16.25250181	      2.33739687	     -5.74617791	     -4.68971529	     -5.04690911	    -11.46026229	     10.16687709	    -16.24371978	     -0.98109817	      9.10804076	    -25.14570606	      7.92461417	     -7.06681997	      2.85609398	     -7.01868784	     -0.02943281	     -6.54124859
      0.64200000	      4.55945623	     -1.47902732	     10.68650575	     -0.77166060	      1.02317222	      0.31202400	     16.05449672	      2.61940097	     -5.59274439	     -5.09179625	     -5.76160762	    -11.94819072	     10.17826788	    -16.06473891	     -1.30741327	      8.69417471	    -26.25743617	      7.28359769	     -6.64070819	      3.05981633	     -7.00048183	      0.11434823	     -6.60645384
      0.64616667	      4.66454773	     -1.62582651	     10.76413589	     -0.76515863	      1.02332056	      0.31276089	     15.88268245	      2.89032961	     -5.46091118	     -5.52522525	     -6.38505421	    -12.39034128	     10.20578433	    -15.83708572	     -1.63527360	      8.26592384	    -27.40617784	      6.56550022	     -6.19384910	      3.40433200	     -6.96296932	      0.22730051	     -6.65933251
      0.65033333	      4.77890786	     -1.80568369	     10.82225785	     -0.75866612	      1.02349304	      0.31350806	     15.72296184	      3.19515728	     -5.36446444	     -5.99398448	     -6.96324511	    -12.73507217	     10.22854033	    -15.59204263	     -2.00195123	      7.79488318	    -28.58540406	      5.83049626	     -5.79008615	      3.74815390	     -6.93591566	      0.42566940	     -6.70728548
      0.65450000	      4.90031254	     -1.96649284	     10.88872918	     -0.75220275	      1.02372510	      0.31426081	     15.55790486	      3.47530328	     -5.31427208	     -6.48084856	     -7.46081601	    -13.02553349	     10.55419173	    -15.33694799	     -2.35755754	      7.36283931	    -29.75387399	      4.83951087	     -5.49769550	      8.31190999	     -6.91923996	      0.56174006	     -6.70751615
      0.65866667	      5.00190340	     -2.14125521	     10.92628458	     -0.74575154	      1.02393960	      0.31505926	     15.43648501	      3.76732944	     -5.25381315	     -7.02837207	     -7.73727529	    -13.13953310	     10.54733389	    -15.03378696	     -2.72537880	      6.88830543	    -30.96793718	      3.88926805	     -5.15227087	      8.33371495	     -6.87835774	      0.72776679	     -6.74191140
      0.66283333	      5.09108025	     -2.32553623	     10.96306317	     -0.73935880	      1.02413534	      0.31590622	     15.34153382	      4.07135639	     -5.19773216	     -7.59034732	     -8.08739738	    -13.44649448	     10.52750451	    -14.66687099	     -3.11972803	      6.37748509	    -32.25161283	      2.99718107	     -4.71643574	      8.45535894	     -6.83127147	      0.89685929	     -6.76821787
      0.66700000	      5.21089944	     -2.50914760	     10.99774339	     -0.73298465	      1.02441769	      0.31672273	     15.20835702	      4.37243535	     -5.18457113	     -8.15732290	     -8.26450970	    -13.53216517	     10.51625131	    -14.32691362	     -3.51326450	      5.91405201	    -33.51286617	      1.90632897	     -4.43111954	      8.51854881	     -6.82263244	      1.06706553	     -6.76869687
      0.67116667	      5.32955734	     -2.70057574	     11.01858467	     -0.72666526	      1.02470164	      0.31757696	     15.08818729	      4.68377201	     -5.17627827	     -8.74765222	     -8.39250020	    -13.64029638	     10.50263530	    -13.95382190	     -3.92268060	      5.43162106	    -34.80859723	      0.80331700	     -4.13150513	      8.59111066	     -6.81733342	      1.24900844	     -6.76049716
      0.67533333	      5.38384407	     -2.89875274	     11.01503299	     -0.72039593	      1.02488816	      0.31847899	     15.05090167	      4.99427313	     -5.15549502	     -9.36414705	     -8.49507089	    -13.79404478	     10.45502798	    -13.47288007	     -4.33242133	      4.92218927	    -36.15531863	     -0.30474144	     -3.83695259	      8.83316118	     -6.73867509	      1.43024932	     -6.72886073
      0.67950000	      5.53399094	     -3.08411041	     11.03185299	     -0.71419105	      1.02525658	      0.31934064	     14.89501713	      5.30166689	     -5.20356921	     -9.96011515	     -8.47975872	    -13.85322955	     10.44371661	    -13.08625808	     -4.75183012	      4.46580140	    -37.47472401	     -1.55989789	     -3.59351081	      8.87524542	     -6.80095462	      1.61614349	     -6.71044176
      0.68366667	      5.59947338	     -3.29538953	     11.02267602	     -0.70799310	      1.02550665	      0.32023927	     14.82783187	      5.62538721	     -5.20417245	    -10.55551418	     -8.36005841	    -13.79485080	      9.50664064	    -12.58213461	     -5.17805548	      4.01861451	    -38.80813874	     -2.94011023	     -3.50012207	     12.18919837	     -6.73398250	      1.80290899	     -6.66344475
